<?xml version="1.0" encoding="utf-8"?>
<?xml-stylesheet type="text/xsl" href="rss1.xsl"?>
<rss version="2.0" xmlns:atom="http://www.w3.org/2005/Atom" xmlns:content="http://purl.org/rss/1.0/modules/content/" xmlns:dc="http://purl.org/dc/elements/1.1/" xmlns:media="http://search.yahoo.com/mrss/">
<channel>
 <title>Getty</title>
 <link>http://www.gettyimg.com/</link>
 <atom:link href="http://www.gettyimg.com/" rel="self" type="application/rss+xml" />

 
                <item>
                <title><![CDATA[【Apple Music】WEB-RiP - Harris &amp; Ford &amp; Bassjackers  - Psycho (feat. Rebecca Helena) (1080p)]]></title>
                <link><![CDATA[https://sharemania.us/threads/harris-ford-bassjackers-psycho-feat-rebecca-helena-1080p.249459/]]></link>
                <description><![CDATA[<article>
<blockquote class="messageText SelectQuoteContainer ugc baseHtml">
<img src="https://i.postimg.cc/fWpmH8fY/Harris-Ford-Bassjackers-Psycho-feat-Rebecca-Helena-mp4.jpg" class="bbCodeImage LbImage" alt="[​IMG]" data-url="https://i.postimg.cc/fWpmH8fY/Harris-Ford-Bassjackers-Psycho-feat-Rebecca-Helena-mp4.jpg" style=""><br>
<br>
<div class="bbCodeBlock bbCodeCode">
<div class="type">Code:</div>
<pre>General
Complete name                  : G:\Новая папка\Harris &amp; Ford &amp; Bassjackers  - Psycho (feat. Rebecca Helena).mp4
Format                         : MPEG-4
Format profile                 : Base Media
Codec ID                       : isom (isom/iso2/avc1/mp41)
File size                      : 174 MiB
Duration                       : 2 min 24 s
Overall bit rate               : 10.1 Mb/s
Frame rate                     : 23.976 FPS
Movie name                     : Psycho (feat. Rebecca Helena)
Performer                      : Harris &amp; Ford &amp; Bassjackers
Genre                          : Dance
ContentType                    : Music Video
Recorded date                  : 2022-04-22 07:00:00 UTC
Writing application            : Lavf56.30.100
Copyright                      : ℗ © 2022 Spinnin' Records

Video
ID                             : 1
Format                         : AVC
Format/Info                    : Advanced Video Codec
Format profile                 : High@L4
Format settings                : CABAC / 5 Ref Frames
Format settings, CABAC         : Yes
Format settings, Reference fra : 5 frames
Format settings, Slice count   : 8 slices per frame
Codec ID                       : avc1
Codec ID/Info                  : Advanced Video Coding
Duration                       : 2 min 24 s
Bit rate                       : 9 837 kb/s
Width                          : 1 920 pixels
Height                         : 864 pixels
Display aspect ratio           : 2.222
Frame rate mode                : Constant
Frame rate                     : 23.976 (24000/1001) FPS
Color space                    : YUV
Chroma subsampling             : 4:2:0
Bit depth                      : 8 bits
Scan type                      : Progressive
Bits/(Pixel*Frame)             : 0.247
Stream size                    : 169 MiB (97%)
Color range                    : Limited
Color primaries                : BT.709
Transfer characteristics       : BT.709
Matrix coefficients            : BT.709
Codec configuration box        : avcC

Audio
ID                             : 2
Format                         : AAC LC
Format/Info                    : Advanced Audio Codec Low Complexity
Codec ID                       : mp4a-40-2
Duration                       : 2 min 24 s
Duration_LastFrame             : -8 ms
Bit rate mode                  : Constant
Bit rate                       : 265 kb/s
Channel(s)                     : 2 channels
Channel layout                 : L R
Sampling rate                  : 48.0 kHz
Frame rate                     : 46.875 FPS (1024 SPF)
Compression mode               : Lossy
Stream size                    : 4.50 MiB (3%)
Default                        : Yes
Alternate group                : 1

</pre>
</div>
<div class="bbCodeBlock bbCodeVfcHH HiddenContent">
<div class="attribution type">Hidden Content:</div>
<blockquote>You must either reply or click 'Like' to see the hidden information contained here.</blockquote>
</div>
<div class="messageTextEndMarker">&nbsp;</div>
</blockquote>
</article>]]></description>
                <author><![CDATA[vitalya3]]></author>
                </item>

                
                <item>
                <title><![CDATA[【Apple Music】WEB-RiP - Dash Berlin &amp; DBSTF - Save Myself (feat. Josie Nelson) (1080p)]]></title>
                <link><![CDATA[https://sharemania.us/threads/dash-berlin-dbstf-save-myself-feat-josie-nelson-1080p.249458/]]></link>
                <description><![CDATA[<article>
<blockquote class="messageText SelectQuoteContainer ugc baseHtml">
<img src="https://i.postimg.cc/8crPYBmC/Dash-Berlin-DBSTF-Save-Myself-feat-Josie-Nelson-mp4.jpg" class="bbCodeImage LbImage" alt="[​IMG]" data-url="https://i.postimg.cc/8crPYBmC/Dash-Berlin-DBSTF-Save-Myself-feat-Josie-Nelson-mp4.jpg" style=""><br>
<br>
<div class="bbCodeBlock bbCodeCode">
<div class="type">Code:</div>
<pre>General
Complete name                  : G:\Новая папка\Dash Berlin &amp; DBSTF - Save Myself (feat. Josie Nelson).mp4
Format                         : MPEG-4
Format profile                 : Base Media
Codec ID                       : isom (isom/iso2/avc1/mp41)
File size                      : 227 MiB
Duration                       : 3 min 11 s
Overall bit rate               : 9 921 kb/s
Frame rate                     : 29.970 FPS
Movie name                     : Save Myself (feat. Josie Nelson)
Performer                      : Dash Berlin &amp; DBSTF
Genre                          : Dance
ContentType                    : Music Video
Recorded date                  : 2018-04-13 07:00:00 UTC
Writing application            : Lavf56.30.100
Copyright                      : ℗ 2018 Armada Music B.V.

Video
ID                             : 1
Format                         : AVC
Format/Info                    : Advanced Video Codec
Format profile                 : High@L4
Format settings                : CABAC / 4 Ref Frames
Format settings, CABAC         : Yes
Format settings, Reference fra : 4 frames
Format settings, Slice count   : 8 slices per frame
Codec ID                       : avc1
Codec ID/Info                  : Advanced Video Coding
Duration                       : 3 min 11 s
Bit rate                       : 9 667 kb/s
Width                          : 1 920 pixels
Height                         : 1 080 pixels
Display aspect ratio           : 16:9
Frame rate mode                : Constant
Frame rate                     : 29.970 (30000/1001) FPS
Color space                    : YUV
Chroma subsampling             : 4:2:0
Bit depth                      : 8 bits
Scan type                      : Progressive
Bits/(Pixel*Frame)             : 0.156
Stream size                    : 221 MiB (97%)
Color range                    : Limited
Color primaries                : BT.709
Transfer characteristics       : BT.709
Matrix coefficients            : BT.709
Codec configuration box        : avcC

Audio
ID                             : 2
Format                         : AAC LC
Format/Info                    : Advanced Audio Codec Low Complexity
Codec ID                       : mp4a-40-2
Duration                       : 3 min 11 s
Duration_LastFrame             : -12 ms
Bit rate mode                  : Constant
Bit rate                       : 248 kb/s
Channel(s)                     : 2 channels
Channel layout                 : L R
Sampling rate                  : 48.0 kHz
Frame rate                     : 46.875 FPS (1024 SPF)
Compression mode               : Lossy
Stream size                    : 5.68 MiB (3%)
Default                        : Yes
Alternate group                : 1

</pre>
</div>
<div class="bbCodeBlock bbCodeVfcHH HiddenContent">
<div class="attribution type">Hidden Content:</div>
<blockquote>You must either reply or click 'Like' to see the hidden information contained here.</blockquote>
</div>
<div class="messageTextEndMarker">&nbsp;</div>
</blockquote>
</article>]]></description>
                <author><![CDATA[vitalya3]]></author>
                </item>

                
                <item>
                <title><![CDATA[【HD Live Performances】UHDTV 4K - Wendy - Wish You Hell (Music Bank KBS2 UHD - 240315) [RTX HDR10]]]></title>
                <link><![CDATA[https://sharemania.us/threads/wendy-wish-you-hell-music-bank-kbs2-uhd-240315-rtx-hdr10.249460/]]></link>
                <description><![CDATA[<article>
<blockquote class="messageText SelectQuoteContainer ugc baseHtml">
<span style="font-size: 18px">My first try on performance footage that i gathered at archive.org. <br>
The file size is roughly 2.1GB. 4K60P of course. Using NVIDIA RTX HDR Video features to make it.... HDR and change the video colorspace from BT.709 to BT.2020. HDR10 compatible. Hopefully you guys like it<br>
<br>
</span>
<div class="bbCodeBlock bbCodeVfcHH HiddenContent">
<div class="attribution type">Hidden Content:</div>
<blockquote>You must either reply or click 'Like' to see the hidden information contained here.</blockquote>
</div><br>
<span style="font-size: 18px">
<div class="bbCodeBlock bbCodeVfcHH HiddenContent">
<div class="attribution type">Hidden Content:</div>
<blockquote>You must reply before you can see the hidden data contained here.</blockquote>
</div></span>
<div class="messageTextEndMarker">&nbsp;</div>
</blockquote>
</article>]]></description>
                <author><![CDATA[ch3v4li3r]]></author>
                </item>

                </channel></rss>